<!-- Generated by IcoMoon.io -->
<svg version="1.1" xmlns="http://www.w3.org/2000/svg" width="32" height="32" viewBox="0 0 32 32">
<title>krug</title>
<path fill="#2196f3" d="M17.411 1.333h-0.042c-7.732-0.012-14.009 6.247-14.021 13.979s6.247 14.009 13.979 14.021h0.042c7.732 0.012 14.009-6.247 14.021-13.979s-6.247-14.009-13.979-14.021zM20.678 18.642c-0.879 0.874-2.069 1.363-3.309 1.358-2.577-0.013-4.656-2.113-4.642-4.691 0.006-1.234 0.501-2.414 1.375-3.285 0.869-0.864 2.042-1.352 3.267-1.358 2.577 0.013 4.656 2.113 4.642 4.691-0.006 1.234-0.501 2.414-1.376 3.285h0.042z"></path>
</svg>
